<svg xmlns="http://www.w3.org/2000/svg" version="1.1" xmlns:xlink="http://www.w3.org/1999/xlink" xmlns:svgjs="http://svgjs.dev/svgjs" width="1500" height="1264" viewBox="0 0 1500 1264"><g transform="matrix(1,0,0,1,0.4424155537745946,0.5132257840205057)"><svg viewBox="0 0 293 247" data-background-color="#000000" preserveAspectRatio="xMidYMid meet" height="1264" width="1500" xmlns="http://www.w3.org/2000/svg" xmlns:xlink="http://www.w3.org/1999/xlink"><g id="tight-bounds" transform="matrix(1,0,0,1,-0.0864185048372974,-0.10007915888590446)"><svg viewBox="0 0 293.1728370096746 247.2" height="247.2" width="293.1728370096746"><rect width="293.1728370096746" height="247.20036932395953" fill="url(#485f93f5-5339-451a-865e-49c106240df0)" mask="url(#b3941b12-a5d6-48f6-a20a-a6c621a73480)" data-fill-palette-color="tertiary"></rect><g><svg viewBox="0 0 293.1728370096746 247.2" height="247.2" width="293.1728370096746"><g><svg viewBox="0 0 293.1728370096746 247.2" height="247.2" width="293.1728370096746"><g id="textblocktransform"><svg viewBox="0 0 293.1728370096746 247.2" height="247.2" width="293.1728370096746" id="textblock"><g><svg viewBox="0 0 293.1728370096746 247.2" height="247.2" width="293.1728370096746"><path d="M292.486 53.02C291.108 27.36 287.18 20.227 287.18 20.227 275.12-6.202 260.07-0.506 246.549 3.292 222.677 3.446 198.902 9.091 175.086 12.119 125.096 12.581 74.679 4.986 24.937 23.717 20.265 29.464-4.847 24.846 0.831 56.304 2.32 69.39 7.75 83.913 7.585 95.922 8.329 98.026 9.363 93.202 9.804 96.23 11.347 104.39 13.87 100.541 15.937 105.365 13.056 118.246 15.124 128.971 17.095 140.21 13.621 143.135 9.17 141.749 7.171 151.449 6.964 158.479 5.848 157.145 4.621 156.837 3.725 156.632 1.92 157.402 2.223 159.608 3.257 167.152-1.181 171.514 1.603 178.904-0.313 186.91 2.926 193.838 2.485 202.511 2.43 204.255 2.733 205.744 3.215 206.154 5.352 208.361 2.237 212.672 2.568 217.342 24.482 249.262 48.257 227.195 70.709 241.872 76.539 231.608 72.156 245.516 74.486 243.36 76.305 240.846 77.628 251.263 79.682 245.362 79.999 243.668 79.516 239.665 80.647 240.435 81.239 240.846 81.763 240.743 81.846 238.382 81.97 234.841 80.881 237.048 80.591 235.201 83.72 225.861 82.948 248.081 85.884 247.158 85.746 244.438 84.892 240.538 86.642 241.051 88.379 237.151 88.434 233.918 89.977 242.693 90.033 244.592 90.308 245.926 90.749 246.85 95.573 237.305 100.37 250.237 105.428 245.926 108.529 241.205 111.506 248.492 114.648 246.696 115.751 245.259 116.868 242.693 117.929 247.004 130.926 247.928 144.777 244.079 157.099 247.158 190.026 241.41 225.213 249.518 259.932 241.923 268.119 238.998 276.623 234.841 284.603 231.506 284.603 231.506 291.067 222.371 291.067 181.316S292.445 145.393 292.652 112.703C292.859 80.013 293.823 78.679 292.445 53.02Z" opacity="1" fill="url(#485f93f5-5339-451a-865e-49c106240df0)" data-fill-palette-color="tertiary"></path><g transform="matrix(1,0,0,1,55.76832,26.230666666666668)"><svg width="181.6361970096746" viewBox="5.35 -37.9 35.35 37.9" height="194.73866666666666" data-palette-color="#000000"><path d="M35.35-37.9L40.7-37.9 40.7 0 35.85 0 35.85-30.55 24.25-14.4 21.7-14.4 10.2-30.55 10.2 0 5.35 0 5.35-37.9 10.65-37.9 23-20.6 35.35-37.9Z" opacity="1" transform="matrix(1,0,0,1,0,0)" fill="#000000" class="wordmark-text-0" data-fill-palette-color="quaternary" id="text-0"></path></svg></g></svg></g></svg></g></svg></g><g></g></svg></g><defs></defs><mask id="b3941b12-a5d6-48f6-a20a-a6c621a73480"><g id="SvgjsG2641"><svg viewBox="0 0 293.1728370096746 247.2" height="247.2" width="293.1728370096746"><g><svg viewBox="0 0 293.1728370096746 247.2" height="247.2" width="293.1728370096746"><g><svg viewBox="0 0 293.1728370096746 247.2" height="247.2" width="293.1728370096746"><g id="SvgjsG2640"><svg viewBox="0 0 293.1728370096746 247.2" height="247.2" width="293.1728370096746" id="SvgjsSvg2639"><g><svg viewBox="0 0 293.1728370096746 247.2" height="247.2" width="293.1728370096746"><path d="M292.486 53.02C291.108 27.36 287.18 20.227 287.18 20.227 275.12-6.202 260.07-0.506 246.549 3.292 222.677 3.446 198.902 9.091 175.086 12.119 125.096 12.581 74.679 4.986 24.937 23.717 20.265 29.464-4.847 24.846 0.831 56.304 2.32 69.39 7.75 83.913 7.585 95.922 8.329 98.026 9.363 93.202 9.804 96.23 11.347 104.39 13.87 100.541 15.937 105.365 13.056 118.246 15.124 128.971 17.095 140.21 13.621 143.135 9.17 141.749 7.171 151.449 6.964 158.479 5.848 157.145 4.621 156.837 3.725 156.632 1.92 157.402 2.223 159.608 3.257 167.152-1.181 171.514 1.603 178.904-0.313 186.91 2.926 193.838 2.485 202.511 2.43 204.255 2.733 205.744 3.215 206.154 5.352 208.361 2.237 212.672 2.568 217.342 24.482 249.262 48.257 227.195 70.709 241.872 76.539 231.608 72.156 245.516 74.486 243.36 76.305 240.846 77.628 251.263 79.682 245.362 79.999 243.668 79.516 239.665 80.647 240.435 81.239 240.846 81.763 240.743 81.846 238.382 81.97 234.841 80.881 237.048 80.591 235.201 83.72 225.861 82.948 248.081 85.884 247.158 85.746 244.438 84.892 240.538 86.642 241.051 88.379 237.151 88.434 233.918 89.977 242.693 90.033 244.592 90.308 245.926 90.749 246.85 95.573 237.305 100.37 250.237 105.428 245.926 108.529 241.205 111.506 248.492 114.648 246.696 115.751 245.259 116.868 242.693 117.929 247.004 130.926 247.928 144.777 244.079 157.099 247.158 190.026 241.41 225.213 249.518 259.932 241.923 268.119 238.998 276.623 234.841 284.603 231.506 284.603 231.506 291.067 222.371 291.067 181.316S292.445 145.393 292.652 112.703C292.859 80.013 293.823 78.679 292.445 53.02Z" opacity="1" fill="white"></path><g transform="matrix(1,0,0,1,55.76832,26.230666666666668)"><svg width="181.6361970096746" viewBox="5.35 -37.9 35.35 37.9" height="194.73866666666666" data-palette-color="#000000"><path d="M35.35-37.9L40.7-37.9 40.7 0 35.85 0 35.85-30.55 24.25-14.4 21.7-14.4 10.2-30.55 10.2 0 5.35 0 5.35-37.9 10.65-37.9 23-20.6 35.35-37.9Z" opacity="1" transform="matrix(1,0,0,1,0,0)" fill="black" class="wordmark-text-0" id="SvgjsPath2638"></path></svg></g></svg></g></svg></g></svg></g><g></g></svg></g><defs><mask></mask></defs></svg><rect width="293.1728370096746" height="247.2" fill="black" stroke="none" visibility="hidden"></rect></g></mask><linearGradient x1="0" x2="1" y1="0.5" y2="0.5" id="485f93f5-5339-451a-865e-49c106240df0"><stop stop-color="#ffa62e" offset="0"></stop><stop stop-color="#f71b3d" offset="1"></stop></linearGradient></svg><rect width="293.1728370096746" height="247.2" fill="none" stroke="none" visibility="hidden"></rect></g></svg></g></svg>